<?xml version="1.0" encoding="UTF-8"?>
<svg xmlns="http://www.w3.org/2000/svg" width="720" height="605" viewBox="0 0 720 605">
<rect width="100%" height="100%" fill="white"/>
<text x="360" y="25" text-anchor="middle" font-size="12" fill="#222">Patch Formation - Parameter Space (z1, zL)  -  Kotwal 2025 Sci. Rep. 15, 34549</text>
<defs><clipPath id="cp0"><rect x="45" y="55" width="180" height="220"/></clipPath></defs>
<rect x="45" y="55" width="180" height="220" fill="#fafafa" stroke="#bbb" stroke-width="0.5"/>
<line x1="63" y1="55" x2="63" y2="275" stroke="#ddd" stroke-width="0.4"/>
<line x1="99" y1="55" x2="99" y2="275" stroke="#ddd" stroke-width="0.4"/>
<line x1="135" y1="55" x2="135" y2="275" stroke="#ddd" stroke-width="0.4"/>
<line x1="171" y1="55" x2="171" y2="275" stroke="#ddd" stroke-width="0.4"/>
<line x1="207" y1="55" x2="207" y2="275" stroke="#ddd" stroke-width="0.4"/>
<line x1="45" y1="245" x2="225" y2="245" stroke="#ddd" stroke-width="0.4"/>
<line x1="45" y1="205" x2="225" y2="205" stroke="#ddd" stroke-width="0.4"/>
<line x1="45" y1="165" x2="225" y2="165" stroke="#ddd" stroke-width="0.4"/>
<line x1="45" y1="125" x2="225" y2="125" stroke="#ddd" stroke-width="0.4"/>
<line x1="45" y1="85" x2="225" y2="85" stroke="#ddd" stroke-width="0.4"/>
<g clip-path="url(#cp0)">
<polygon points="215.701,165.011 215.701,61.6695 179.688,55.0003 142.195,55.0003 142.195,161.237 143.119,161.75 160.729,165.011 " fill="#3949AB" fill-opacity="0.75" stroke="white" stroke-width="0.3"/>
<polygon points="215.701,192.496 215.701,146.437 196.049,113.684 168.475,98.3645 142.195,98.3645 142.195,189.985 155.75,192.496 " fill="#3949AB" fill-opacity="0.75" stroke="white" stroke-width="0.3"/>
<polygon points="215.701,255.668 215.701,203.844 209.131,192.893 206.984,192.496 142.195,192.496 142.195,219.775 206.801,255.668 " fill="#43A047" fill-opacity="0.75" stroke="white" stroke-width="0.3"/>
<polygon points="215.701,229.165 215.701,222.964 198.84,194.862 164.084,175.553 160.518,174.892 142.195,174.892 142.195,229.165 " fill="#43A047" fill-opacity="0.75" stroke="white" stroke-width="0.3"/>
<polygon points="137.853,255.668 137.853,228.329 94.1408,204.045 93.6941,203.962 93.6941,255.668 " fill="#43A047" fill-opacity="0.75" stroke="white" stroke-width="0.3"/>
<polygon points="215.701,274.99 215.701,261.207 213.241,257.107 142.195,217.637 142.195,236.016 165.58,274.99 " fill="#F57C00" fill-opacity="0.75" stroke="white" stroke-width="0.3"/>
<polygon points="215.701,229.165 215.701,222.964 198.84,194.862 164.084,175.553 160.518,174.892 142.195,174.892 142.195,229.165 " fill="#F57C00" fill-opacity="0.75" stroke="white" stroke-width="0.3"/>
<polygon points="137.853,274.99 137.853,228.329 97.44,205.877 93.6941,205.877 93.6941,274.99 " fill="#F57C00" fill-opacity="0.75" stroke="white" stroke-width="0.3"/>
<polygon points="200.946,274.99 142.195,242.351 142.195,258.175 152.284,274.99 " fill="#8E24AA" fill-opacity="0.75" stroke="white" stroke-width="0.3"/>
<polygon points="207.471,247.49 172.405,189.047 164.428,184.615 157.447,183.322 142.195,183.322 142.195,236.016 148.929,247.239 149.381,247.49 " fill="#8E24AA" fill-opacity="0.75" stroke="white" stroke-width="0.3"/>
<polygon points="137.853,274.99 137.853,246.392 133.077,238.432 93.6941,216.553 93.6941,274.99 " fill="#8E24AA" fill-opacity="0.75" stroke="white" stroke-width="0.3"/>
<polygon points="142.195,165.011 142.195,62.1182 141.903,61.6315 130.624,55.3655 128.652,55.0003 98.3591,55.0003 98.3591,150.276 124.884,165.011 " fill="#00ACC1" fill-opacity="0.75" stroke="white" stroke-width="0.3"/>
<polygon points="142.195,183.322 142.195,157.823 106.573,98.4525 98.3591,93.8894 98.3591,183.322 " fill="#00ACC1" fill-opacity="0.75" stroke="white" stroke-width="0.3"/>
<polygon points="7.33622,165.011 3.02275,164.213 3.02275,165.011 " fill="#00ACC1" fill-opacity="0.75" stroke="white" stroke-width="0.3"/>
<polygon points="142.195,247.49 142.195,195.571 138.425,189.287 106.213,183.322 98.3591,183.322 98.3591,240.514 110.916,247.49 " fill="#E91E63" fill-opacity="0.75" stroke="white" stroke-width="0.3"/>
<polygon points="142.195,274.99 142.195,224.52 136.926,215.739 125.305,209.283 106.917,205.877 98.3591,205.877 98.3591,274.99 " fill="#E91E63" fill-opacity="0.75" stroke="white" stroke-width="0.3"/>
<polygon points="92.6233,247.49 64.2447,200.192 59.6986,197.666 39.6814,193.959 39.6814,247.49 " fill="#E91E63" fill-opacity="0.75" stroke="white" stroke-width="0.3"/>
<polygon points="138.506,274.99 108.318,224.677 98.3591,219.144 98.3591,274.99 " fill="#00897B" fill-opacity="0.75" stroke="white" stroke-width="0.3"/>
<polygon points="142.195,265.676 142.195,208.467 129.946,201.662 98.3591,201.662 98.3591,257.558 " fill="#00897B" fill-opacity="0.75" stroke="white" stroke-width="0.3"/>
<polygon points="93.6941,274.99 93.6941,255.635 63.8396,205.877 -11.6769,205.877 -11.6769,274.99 " fill="#00897B" fill-opacity="0.75" stroke="white" stroke-width="0.3"/>
<polygon points="98.3591,162.956 98.3591,65.6363 93.766,57.9811 77.6698,55.0003 33.5858,55.0003 " fill="#FDD835" fill-opacity="0.75" stroke="white" stroke-width="0.3"/>
<polygon points="98.3591,222.811 98.3591,168.394 92.2697,165.011 -4.34203,165.011 -4.34203,194.794 19.9524,208.291 " fill="#6D4C41" fill-opacity="0.75" stroke="white" stroke-width="0.3"/>
<polygon points="98.3591,255.668 98.3591,199.842 58.6894,192.496 -4.34203,192.496 -4.34203,238.812 1.88074,249.183 36.8997,255.668 " fill="#6D4C41" fill-opacity="0.75" stroke="white" stroke-width="0.3"/>
<polygon points="47.0082,224.638 47.0082,195.316 -63.0243,174.94 -63.0243,224.638 " fill="#6D4C41" fill-opacity="0.75" stroke="white" stroke-width="0.3"/>
<polygon points="98.3591,274.99 98.3591,257.049 67.656,205.877 -4.34203,205.877 -4.34203,274.99 " fill="#1E88E5" fill-opacity="0.75" stroke="white" stroke-width="0.3"/>
<polygon points="98.3591,274.99 98.3591,244.115 75.8858,206.659 74.4786,205.877 -4.34203,205.877 -4.34203,274.99 " fill="#1E88E5" fill-opacity="0.75" stroke="white" stroke-width="0.3"/>
<polygon points="47.0082,274.99 47.0082,205.877 -63.0243,205.877 -63.0243,274.944 -62.9968,274.99 " fill="#1E88E5" fill-opacity="0.75" stroke="white" stroke-width="0.3"/>
<polygon points="98.3591,274.99 98.3591,263.41 63.8396,205.877 -4.34203,205.877 -4.34203,274.99 " fill="#FB8C00" fill-opacity="0.75" stroke="white" stroke-width="0.3"/>
<polygon points="98.3591,274.99 98.3591,244.115 75.8858,206.659 74.4786,205.877 -4.34203,205.877 -4.34203,274.99 " fill="#FB8C00" fill-opacity="0.75" stroke="white" stroke-width="0.3"/>
<polygon points="47.0082,274.99 47.0082,205.877 -63.0243,205.877 -63.0243,274.944 -62.9968,274.99 " fill="#FB8C00" fill-opacity="0.75" stroke="white" stroke-width="0.3"/>
<line x1="138.6" y1="275" x2="217.8" y2="55" stroke="black" stroke-width="1.2"/>
<line x1="52.2" y1="275" x2="131.4" y2="55" stroke="black" stroke-width="1.2"/>
</g>
<rect x="45" y="55" width="180" height="220" fill="none" stroke="#555" stroke-width="0.8"/>
<line x1="63" y1="275" x2="63" y2="279" stroke="#555" stroke-width="0.7"/>
<line x1="99" y1="275" x2="99" y2="279" stroke="#555" stroke-width="0.7"/>
<line x1="135" y1="275" x2="135" y2="279" stroke="#555" stroke-width="0.7"/>
<line x1="171" y1="275" x2="171" y2="279" stroke="#555" stroke-width="0.7"/>
<line x1="207" y1="275" x2="207" y2="279" stroke="#555" stroke-width="0.7"/>
<line x1="41" y1="245" x2="45" y2="245" stroke="#555" stroke-width="0.7"/>
<text x="39" y="248" text-anchor="end" font-size="8" fill="black">-40</text>
<line x1="41" y1="205" x2="45" y2="205" stroke="#555" stroke-width="0.7"/>
<text x="39" y="208" text-anchor="end" font-size="8" fill="black">-20</text>
<line x1="41" y1="165" x2="45" y2="165" stroke="#555" stroke-width="0.7"/>
<text x="39" y="168" text-anchor="end" font-size="8" fill="black">0</text>
<line x1="41" y1="125" x2="45" y2="125" stroke="#555" stroke-width="0.7"/>
<text x="39" y="128" text-anchor="end" font-size="8" fill="black">20</text>
<line x1="41" y1="85" x2="45" y2="85" stroke="#555" stroke-width="0.7"/>
<text x="39" y="88" text-anchor="end" font-size="8" fill="black">40</text>
<text transform="rotate(-90,20,165)" x="20" y="169" text-anchor="middle" font-size="9" fill="#333" font-style="italic">z_L (cm)</text>
<text x="223" y="67" text-anchor="end" font-size="7" fill="#333">SP=11 P=30</text>
<defs><clipPath id="cp1"><rect x="280" y="55" width="180" height="220"/></clipPath></defs>
<rect x="280" y="55" width="180" height="220" fill="#fafafa" stroke="#bbb" stroke-width="0.5"/>
<line x1="298" y1="55" x2="298" y2="275" stroke="#ddd" stroke-width="0.4"/>
<line x1="334" y1="55" x2="334" y2="275" stroke="#ddd" stroke-width="0.4"/>
<line x1="370" y1="55" x2="370" y2="275" stroke="#ddd" stroke-width="0.4"/>
<line x1="406" y1="55" x2="406" y2="275" stroke="#ddd" stroke-width="0.4"/>
<line x1="442" y1="55" x2="442" y2="275" stroke="#ddd" stroke-width="0.4"/>
<line x1="280" y1="245" x2="460" y2="245" stroke="#ddd" stroke-width="0.4"/>
<line x1="280" y1="205" x2="460" y2="205" stroke="#ddd" stroke-width="0.4"/>
<line x1="280" y1="165" x2="460" y2="165" stroke="#ddd" stroke-width="0.4"/>
<line x1="280" y1="125" x2="460" y2="125" stroke="#ddd" stroke-width="0.4"/>
<line x1="280" y1="85" x2="460" y2="85" stroke="#ddd" stroke-width="0.4"/>
<g clip-path="url(#cp1)">
<polygon points="450.664,146.649 450.664,64.1454 377.307,64.1454 377.307,114.676 390.714,137.02 405.452,145.208 413.233,146.649 " fill="#3949AB" fill-opacity="0.75" stroke="white" stroke-width="0.3"/>
<polygon points="450.664,183.344 450.664,127.467 438.452,107.114 424.032,99.103 377.307,99.103 377.307,177.146 379.041,180.036 381.312,181.297 392.366,183.344 " fill="#3949AB" fill-opacity="0.75" stroke="white" stroke-width="0.3"/>
<polygon points="450.664,256.684 450.664,184.664 443.54,183.344 377.307,183.344 377.307,234.626 385.794,248.77 428.526,256.684 " fill="#43A047" fill-opacity="0.75" stroke="white" stroke-width="0.3"/>
<polygon points="450.664,275.008 450.664,242.077 446.999,235.969 415.694,218.577 377.307,211.469 377.307,275.008 " fill="#43A047" fill-opacity="0.75" stroke="white" stroke-width="0.3"/>
<polygon points="367.631,256.684 353.185,232.608 331.513,220.568 331.513,256.684 " fill="#43A047" fill-opacity="0.75" stroke="white" stroke-width="0.3"/>
<polygon points="377.307,142.696 377.307,64.1454 329.562,64.1454 329.562,133.854 " fill="#F57C00" fill-opacity="0.75" stroke="white" stroke-width="0.3"/>
<polygon points="377.307,192.49 377.307,114.155 369.957,101.904 364.157,100.83 329.562,100.83 329.562,190.629 339.612,192.49 " fill="#F57C00" fill-opacity="0.75" stroke="white" stroke-width="0.3"/>
<polygon points="377.307,265.836 377.307,199.47 339.612,192.49 329.562,192.49 329.562,250.623 338.689,265.836 " fill="#8E24AA" fill-opacity="0.75" stroke="white" stroke-width="0.3"/>
<polygon points="377.307,275.008 377.307,231.068 376.079,229.022 346.766,212.737 329.562,209.551 329.562,275.008 " fill="#8E24AA" fill-opacity="0.75" stroke="white" stroke-width="0.3"/>
<polygon points="329.562,265.836 329.562,250.623 301.838,204.417 237.432,192.49 230.69,192.49 230.69,265.836 " fill="#8E24AA" fill-opacity="0.75" stroke="white" stroke-width="0.3"/>
<polygon points="329.562,143.327 329.562,64.1454 237.711,64.1454 279.677,134.089 " fill="#00ACC1" fill-opacity="0.75" stroke="white" stroke-width="0.3"/>
<polygon points="329.562,220.366 329.562,151.493 326.655,146.649 232.782,146.649 264.887,200.157 287.114,212.505 " fill="#E91E63" fill-opacity="0.75" stroke="white" stroke-width="0.3"/>
<polygon points="329.562,275.008 329.562,229.25 320.772,214.601 302.743,204.584 286.973,201.664 230.69,201.664 230.69,275.008 " fill="#00897B" fill-opacity="0.75" stroke="white" stroke-width="0.3"/>
<polygon points="329.562,275.008 329.562,231.523 318.727,213.464 302.743,204.584 286.973,201.664 230.69,201.664 230.69,275.008 " fill="#00897B" fill-opacity="0.75" stroke="white" stroke-width="0.3"/>
<polygon points="282.019,275.008 282.019,201.664 172.014,201.664 172.014,275.008 " fill="#00897B" fill-opacity="0.75" stroke="white" stroke-width="0.3"/>
<line x1="373.6" y1="275" x2="452.8" y2="55" stroke="black" stroke-width="1.2"/>
<line x1="287.2" y1="275" x2="366.4" y2="55" stroke="black" stroke-width="1.2"/>
</g>
<rect x="280" y="55" width="180" height="220" fill="none" stroke="#555" stroke-width="0.8"/>
<line x1="298" y1="275" x2="298" y2="279" stroke="#555" stroke-width="0.7"/>
<line x1="334" y1="275" x2="334" y2="279" stroke="#555" stroke-width="0.7"/>
<line x1="370" y1="275" x2="370" y2="279" stroke="#555" stroke-width="0.7"/>
<line x1="406" y1="275" x2="406" y2="279" stroke="#555" stroke-width="0.7"/>
<line x1="442" y1="275" x2="442" y2="279" stroke="#555" stroke-width="0.7"/>
<line x1="276" y1="245" x2="280" y2="245" stroke="#555" stroke-width="0.7"/>
<line x1="276" y1="205" x2="280" y2="205" stroke="#555" stroke-width="0.7"/>
<line x1="276" y1="165" x2="280" y2="165" stroke="#555" stroke-width="0.7"/>
<line x1="276" y1="125" x2="280" y2="125" stroke="#555" stroke-width="0.7"/>
<line x1="276" y1="85" x2="280" y2="85" stroke="#555" stroke-width="0.7"/>
<text x="458" y="67" text-anchor="end" font-size="7" fill="#333">SP=7 P=15</text>
<defs><clipPath id="cp2"><rect x="515" y="55" width="180" height="220"/></clipPath></defs>
<rect x="515" y="55" width="180" height="220" fill="#fafafa" stroke="#bbb" stroke-width="0.5"/>
<line x1="533" y1="55" x2="533" y2="275" stroke="#ddd" stroke-width="0.4"/>
<line x1="569" y1="55" x2="569" y2="275" stroke="#ddd" stroke-width="0.4"/>
<line x1="605" y1="55" x2="605" y2="275" stroke="#ddd" stroke-width="0.4"/>
<line x1="641" y1="55" x2="641" y2="275" stroke="#ddd" stroke-width="0.4"/>
<line x1="677" y1="55" x2="677" y2="275" stroke="#ddd" stroke-width="0.4"/>
<line x1="515" y1="245" x2="695" y2="245" stroke="#ddd" stroke-width="0.4"/>
<line x1="515" y1="205" x2="695" y2="205" stroke="#ddd" stroke-width="0.4"/>
<line x1="515" y1="165" x2="695" y2="165" stroke="#ddd" stroke-width="0.4"/>
<line x1="515" y1="125" x2="695" y2="125" stroke="#ddd" stroke-width="0.4"/>
<line x1="515" y1="85" x2="695" y2="85" stroke="#ddd" stroke-width="0.4"/>
<g clip-path="url(#cp2)">
<polygon points="685.713,121.541 685.713,61.6785 649.72,55.0132 617.988,55.0132 617.988,110.151 620.572,114.456 633.324,121.541 " fill="#3949AB" fill-opacity="0.75" stroke="white" stroke-width="0.3"/>
<polygon points="685.713,165.014 685.713,118.161 671.725,94.8478 653.902,84.9462 640.745,82.5097 617.988,82.5097 617.988,155.27 635.527,165.014 " fill="#3949AB" fill-opacity="0.75" stroke="white" stroke-width="0.3"/>
<polygon points="685.713,256.668 685.713,170.368 676.075,165.014 617.988,165.014 617.988,188.988 657.697,255.17 665.788,256.668 " fill="#43A047" fill-opacity="0.75" stroke="white" stroke-width="0.3"/>
<polygon points="685.713,256.754 685.713,188.195 660.482,174.178 617.988,174.178 617.988,243.976 625.655,256.754 " fill="#43A047" fill-opacity="0.75" stroke="white" stroke-width="0.3"/>
<polygon points="614.082,256.668 603.187,238.509 568.316,219.136 568.316,256.668 " fill="#43A047" fill-opacity="0.75" stroke="white" stroke-width="0.3"/>
<polygon points="685.713,275.001 685.713,261.194 685.19,260.323 617.988,222.989 617.988,275.001 " fill="#F57C00" fill-opacity="0.75" stroke="white" stroke-width="0.3"/>
<polygon points="685.713,275.001 685.713,273.234 664.198,237.377 638.915,223.331 617.988,219.455 617.988,275.001 " fill="#F57C00" fill-opacity="0.75" stroke="white" stroke-width="0.3"/>
<polygon points="616.008,275.001 589.575,230.947 568.316,219.136 568.316,275.001 " fill="#F57C00" fill-opacity="0.75" stroke="white" stroke-width="0.3"/>
<polygon points="675.158,275.001 617.988,243.24 617.988,275.001 " fill="#8E24AA" fill-opacity="0.75" stroke="white" stroke-width="0.3"/>
<polygon points="685.713,265.844 685.713,198.901 676.373,183.334 617.988,183.334 617.988,256.877 619.098,257.493 664.192,265.844 " fill="#8E24AA" fill-opacity="0.75" stroke="white" stroke-width="0.3"/>
<polygon points="617.988,121.541 617.988,58.85 617.214,58.4198 598.819,55.0132 560.965,55.0132 560.965,112.334 568.954,116.773 594.702,121.541 " fill="#00ACC1" fill-opacity="0.75" stroke="white" stroke-width="0.3"/>
<polygon points="617.988,174.178 617.988,87.6202 611.22,83.8599 560.965,83.8599 560.965,168.139 561.499,169.029 567.262,172.231 577.777,174.178 " fill="#00ACC1" fill-opacity="0.75" stroke="white" stroke-width="0.3"/>
<polygon points="617.988,256.754 617.988,186.602 614.629,181.003 577.777,174.178 560.965,174.178 560.965,255.549 561.688,256.754 " fill="#E91E63" fill-opacity="0.75" stroke="white" stroke-width="0.3"/>
<polygon points="617.988,275.001 617.988,234.269 577.992,212.049 560.965,208.895 560.965,275.001 " fill="#E91E63" fill-opacity="0.75" stroke="white" stroke-width="0.3"/>
<polygon points="553.697,256.754 553.697,243.436 529.474,203.064 458.324,189.888 458.324,256.754 " fill="#E91E63" fill-opacity="0.75" stroke="white" stroke-width="0.3"/>
<polygon points="616.008,275.001 589.575,230.947 560.965,215.052 560.965,275.001 " fill="#00897B" fill-opacity="0.75" stroke="white" stroke-width="0.3"/>
<polygon points="617.988,265.844 617.988,188.599 617.952,188.538 589.855,183.334 560.965,183.334 560.965,259.019 573.249,265.844 " fill="#00897B" fill-opacity="0.75" stroke="white" stroke-width="0.3"/>
<polygon points="553.697,275.001 553.697,243.436 529.474,203.064 458.324,189.888 458.324,275.001 " fill="#00897B" fill-opacity="0.75" stroke="white" stroke-width="0.3"/>
<polygon points="560.965,121.541 560.965,65.321 555.685,56.5207 547.544,55.0132 465.665,55.0132 465.665,77.9279 484.681,109.621 549.047,121.541 " fill="#FDD835" fill-opacity="0.75" stroke="white" stroke-width="0.3"/>
<polygon points="560.965,131.427 560.965,93.9488 548.595,73.332 465.665,73.332 465.665,124.076 466.29,125.117 500.362,131.427 " fill="#FDD835" fill-opacity="0.75" stroke="white" stroke-width="0.3"/>
<polygon points="446.978,121.541 406.978,114.133 406.978,121.541 " fill="#FDD835" fill-opacity="0.75" stroke="white" stroke-width="0.3"/>
<polygon points="560.965,227.801 560.965,148.936 550.459,131.427 465.665,131.427 465.665,181.423 477.701,201.482 507.13,217.832 " fill="#6D4C41" fill-opacity="0.75" stroke="white" stroke-width="0.3"/>
<polygon points="560.965,247.493 560.965,187.256 554.707,176.826 465.665,160.336 465.665,238.798 466.667,240.468 479.312,247.493 " fill="#6D4C41" fill-opacity="0.75" stroke="white" stroke-width="0.3"/>
<polygon points="517.011,229.167 517.011,200.756 406.978,180.379 406.978,229.167 " fill="#6D4C41" fill-opacity="0.75" stroke="white" stroke-width="0.3"/>
<polygon points="560.965,275.001 560.965,255.549 529.474,203.064 465.665,191.247 465.665,275.001 " fill="#1E88E5" fill-opacity="0.75" stroke="white" stroke-width="0.3"/>
<polygon points="560.965,275.001 560.965,236.76 542.156,205.412 465.665,191.247 465.665,275.001 " fill="#1E88E5" fill-opacity="0.75" stroke="white" stroke-width="0.3"/>
<polygon points="517.011,275.001 517.011,200.756 451.102,188.55 406.978,188.55 406.978,274.979 406.992,275.001 " fill="#1E88E5" fill-opacity="0.75" stroke="white" stroke-width="0.3"/>
<polygon points="560.965,275.001 560.965,255.549 529.474,203.064 465.665,191.247 465.665,275.001 " fill="#FB8C00" fill-opacity="0.75" stroke="white" stroke-width="0.3"/>
<polygon points="560.965,275.001 560.965,236.76 542.156,205.412 465.665,191.247 465.665,275.001 " fill="#FB8C00" fill-opacity="0.75" stroke="white" stroke-width="0.3"/>
<polygon points="517.011,275.001 517.011,200.756 451.102,188.55 406.978,188.55 406.978,274.979 406.992,275.001 " fill="#FB8C00" fill-opacity="0.75" stroke="white" stroke-width="0.3"/>
<line x1="608.6" y1="275" x2="687.8" y2="55" stroke="black" stroke-width="1.2"/>
<line x1="522.2" y1="275" x2="601.4" y2="55" stroke="black" stroke-width="1.2"/>
</g>
<rect x="515" y="55" width="180" height="220" fill="none" stroke="#555" stroke-width="0.8"/>
<line x1="533" y1="275" x2="533" y2="279" stroke="#555" stroke-width="0.7"/>
<line x1="569" y1="275" x2="569" y2="279" stroke="#555" stroke-width="0.7"/>
<line x1="605" y1="275" x2="605" y2="279" stroke="#555" stroke-width="0.7"/>
<line x1="641" y1="275" x2="641" y2="279" stroke="#555" stroke-width="0.7"/>
<line x1="677" y1="275" x2="677" y2="279" stroke="#555" stroke-width="0.7"/>
<line x1="511" y1="245" x2="515" y2="245" stroke="#555" stroke-width="0.7"/>
<line x1="511" y1="205" x2="515" y2="205" stroke="#555" stroke-width="0.7"/>
<line x1="511" y1="165" x2="515" y2="165" stroke="#555" stroke-width="0.7"/>
<line x1="511" y1="125" x2="515" y2="125" stroke="#555" stroke-width="0.7"/>
<line x1="511" y1="85" x2="515" y2="85" stroke="#555" stroke-width="0.7"/>
<text x="693" y="67" text-anchor="end" font-size="7" fill="#333">SP=11 P=30</text>
<defs><clipPath id="cp3"><rect x="45" y="330" width="180" height="220"/></clipPath></defs>
<rect x="45" y="330" width="180" height="220" fill="#fafafa" stroke="#bbb" stroke-width="0.5"/>
<line x1="63" y1="330" x2="63" y2="550" stroke="#ddd" stroke-width="0.4"/>
<line x1="99" y1="330" x2="99" y2="550" stroke="#ddd" stroke-width="0.4"/>
<line x1="135" y1="330" x2="135" y2="550" stroke="#ddd" stroke-width="0.4"/>
<line x1="171" y1="330" x2="171" y2="550" stroke="#ddd" stroke-width="0.4"/>
<line x1="207" y1="330" x2="207" y2="550" stroke="#ddd" stroke-width="0.4"/>
<line x1="45" y1="520" x2="225" y2="520" stroke="#ddd" stroke-width="0.4"/>
<line x1="45" y1="480" x2="225" y2="480" stroke="#ddd" stroke-width="0.4"/>
<line x1="45" y1="440" x2="225" y2="440" stroke="#ddd" stroke-width="0.4"/>
<line x1="45" y1="400" x2="225" y2="400" stroke="#ddd" stroke-width="0.4"/>
<line x1="45" y1="360" x2="225" y2="360" stroke="#ddd" stroke-width="0.4"/>
<g clip-path="url(#cp3)">
<polygon points="215.671,419.727 215.671,336.671 179.65,330 142.338,330 142.338,404.597 169.572,419.727 " fill="#3949AB" fill-opacity="0.75" stroke="white" stroke-width="0.3"/>
<polygon points="215.671,470.977 215.671,402.358 206.759,387.504 191.271,384.636 142.338,384.636 142.338,461.031 160.242,470.977 " fill="#3949AB" fill-opacity="0.75" stroke="white" stroke-width="0.3"/>
<polygon points="215.671,548.526 215.671,479.158 214.18,478.33 174.475,470.977 142.338,470.977 142.338,528.702 159.198,538.068 " fill="#43A047" fill-opacity="0.75" stroke="white" stroke-width="0.3"/>
<polygon points="215.671,550.007 215.671,536.19 184.694,484.561 172.436,477.752 142.338,472.178 142.338,550.007 " fill="#43A047" fill-opacity="0.75" stroke="white" stroke-width="0.3"/>
<polygon points="142.338,550.007 142.338,547.291 125.608,519.407 93.6379,501.646 93.6379,550.007 " fill="#43A047" fill-opacity="0.75" stroke="white" stroke-width="0.3"/>
<polygon points="142.338,419.727 142.338,337.435 141.858,336.635 130.58,330.37 128.587,330 93.6379,330 93.6379,417.284 106.828,419.727 " fill="#F57C00" fill-opacity="0.75" stroke="white" stroke-width="0.3"/>
<polygon points="142.338,476.681 142.338,413.969 132.08,396.871 93.6379,389.753 93.6379,467.807 109.612,476.681 " fill="#F57C00" fill-opacity="0.75" stroke="white" stroke-width="0.3"/>
<polygon points="142.338,550.007 142.338,482.081 93.6379,473.062 93.6379,543.296 96.7784,548.53 99.4375,550.007 " fill="#8E24AA" fill-opacity="0.75" stroke="white" stroke-width="0.3"/>
<polygon points="142.338,550.007 142.338,517.415 93.6379,490.359 93.6379,550.007 " fill="#8E24AA" fill-opacity="0.75" stroke="white" stroke-width="0.3"/>
<polygon points="93.6379,550.007 93.6379,543.296 56.1531,480.821 47.028,475.752 21.2459,470.977 -4.33296,470.977 -4.33296,550.007 " fill="#8E24AA" fill-opacity="0.75" stroke="white" stroke-width="0.3"/>
<polygon points="93.6379,418.142 93.6379,332.967 77.6193,330 5.83609,330 54.3566,410.868 " fill="#00ACC1" fill-opacity="0.75" stroke="white" stroke-width="0.3"/>
<polygon points="93.6379,504.178 93.6379,428.387 88.4511,419.742 88.423,419.727 -4.33296,419.727 -4.33296,437.363 14.7015,469.087 77.4059,503.923 78.7846,504.178 " fill="#E91E63" fill-opacity="0.75" stroke="white" stroke-width="0.3"/>
<polygon points="93.6379,504.178 93.6379,466.123 84.9894,451.709 66.6744,441.534 -4.33296,428.385 -4.33296,494.722 1.34074,504.178 " fill="#E91E63" fill-opacity="0.75" stroke="white" stroke-width="0.3"/>
<polygon points="47.0056,504.178 47.0056,475.748 -62.9859,455.379 -62.9859,504.178 " fill="#E91E63" fill-opacity="0.75" stroke="white" stroke-width="0.3"/>
<polygon points="93.6379,550.007 93.6379,504.982 90.6358,499.978 47.028,475.752 21.2459,470.977 -4.33296,470.977 -4.33296,550.007 " fill="#00897B" fill-opacity="0.75" stroke="white" stroke-width="0.3"/>
<polygon points="93.6379,550.007 93.6379,524.075 73.4514,490.431 47.028,475.752 21.2459,470.977 -4.33296,470.977 -4.33296,550.007 " fill="#00897B" fill-opacity="0.75" stroke="white" stroke-width="0.3"/>
<polygon points="47.0056,550.007 47.0056,475.748 21.2459,470.977 -62.9859,470.977 -62.9859,550.007 " fill="#00897B" fill-opacity="0.75" stroke="white" stroke-width="0.3"/>
<line x1="138.6" y1="550" x2="217.8" y2="330" stroke="black" stroke-width="1.2"/>
<line x1="52.2" y1="550" x2="131.4" y2="330" stroke="black" stroke-width="1.2"/>
</g>
<rect x="45" y="330" width="180" height="220" fill="none" stroke="#555" stroke-width="0.8"/>
<line x1="63" y1="550" x2="63" y2="554" stroke="#555" stroke-width="0.7"/>
<text x="63" y="564" text-anchor="middle" font-size="8" fill="black">-20</text>
<line x1="99" y1="550" x2="99" y2="554" stroke="#555" stroke-width="0.7"/>
<text x="99" y="564" text-anchor="middle" font-size="8" fill="black">-10</text>
<line x1="135" y1="550" x2="135" y2="554" stroke="#555" stroke-width="0.7"/>
<text x="135" y="564" text-anchor="middle" font-size="8" fill="black">0</text>
<line x1="171" y1="550" x2="171" y2="554" stroke="#555" stroke-width="0.7"/>
<text x="171" y="564" text-anchor="middle" font-size="8" fill="black">10</text>
<line x1="207" y1="550" x2="207" y2="554" stroke="#555" stroke-width="0.7"/>
<text x="207" y="564" text-anchor="middle" font-size="8" fill="black">20</text>
<text x="135" y="576" text-anchor="middle" font-size="9" fill="#333" font-style="italic">z1 (cm)</text>
<line x1="41" y1="520" x2="45" y2="520" stroke="#555" stroke-width="0.7"/>
<text x="39" y="523" text-anchor="end" font-size="8" fill="black">-40</text>
<line x1="41" y1="480" x2="45" y2="480" stroke="#555" stroke-width="0.7"/>
<text x="39" y="483" text-anchor="end" font-size="8" fill="black">-20</text>
<line x1="41" y1="440" x2="45" y2="440" stroke="#555" stroke-width="0.7"/>
<text x="39" y="443" text-anchor="end" font-size="8" fill="black">0</text>
<line x1="41" y1="400" x2="45" y2="400" stroke="#555" stroke-width="0.7"/>
<text x="39" y="403" text-anchor="end" font-size="8" fill="black">20</text>
<line x1="41" y1="360" x2="45" y2="360" stroke="#555" stroke-width="0.7"/>
<text x="39" y="363" text-anchor="end" font-size="8" fill="black">40</text>
<text transform="rotate(-90,20,440)" x="20" y="444" text-anchor="middle" font-size="9" fill="#333" font-style="italic">z_L (cm)</text>
<text x="223" y="342" text-anchor="end" font-size="7" fill="#333">SP=7 P=17</text>
<defs><clipPath id="cp4"><rect x="280" y="330" width="180" height="220"/></clipPath></defs>
<rect x="280" y="330" width="180" height="220" fill="#fafafa" stroke="#bbb" stroke-width="0.5"/>
<line x1="298" y1="330" x2="298" y2="550" stroke="#ddd" stroke-width="0.4"/>
<line x1="334" y1="330" x2="334" y2="550" stroke="#ddd" stroke-width="0.4"/>
<line x1="370" y1="330" x2="370" y2="550" stroke="#ddd" stroke-width="0.4"/>
<line x1="406" y1="330" x2="406" y2="550" stroke="#ddd" stroke-width="0.4"/>
<line x1="442" y1="330" x2="442" y2="550" stroke="#ddd" stroke-width="0.4"/>
<line x1="280" y1="520" x2="460" y2="520" stroke="#ddd" stroke-width="0.4"/>
<line x1="280" y1="480" x2="460" y2="480" stroke="#ddd" stroke-width="0.4"/>
<line x1="280" y1="440" x2="460" y2="440" stroke="#ddd" stroke-width="0.4"/>
<line x1="280" y1="400" x2="460" y2="400" stroke="#ddd" stroke-width="0.4"/>
<line x1="280" y1="360" x2="460" y2="360" stroke="#ddd" stroke-width="0.4"/>
<g clip-path="url(#cp4)">
<polygon points="450.686,425.465 450.686,339.176 383.022,339.176 383.022,407.52 383.23,407.867 412.706,424.242 419.31,425.465 " fill="#3949AB" fill-opacity="0.75" stroke="white" stroke-width="0.3"/>
<polygon points="450.686,467.51 450.686,400.187 406.857,375.837 383.022,371.423 383.022,461.659 386.533,467.51 " fill="#3949AB" fill-opacity="0.75" stroke="white" stroke-width="0.3"/>
<polygon points="450.686,540.833 450.686,474.547 447.028,468.45 441.955,467.51 383.022,467.51 383.022,538.266 384.563,540.833 " fill="#43A047" fill-opacity="0.75" stroke="white" stroke-width="0.3"/>
<polygon points="450.686,549.983 450.686,535.585 398.991,506.865 383.022,503.908 383.022,549.983 " fill="#43A047" fill-opacity="0.75" stroke="white" stroke-width="0.3"/>
<polygon points="378.87,540.833 333.362,515.551 333.362,540.833 " fill="#43A047" fill-opacity="0.75" stroke="white" stroke-width="0.3"/>
<polygon points="436.01,549.983 383.022,520.545 383.022,549.983 " fill="#F57C00" fill-opacity="0.75" stroke="white" stroke-width="0.3"/>
<polygon points="450.686,540.833 450.686,474.547 446.464,467.51 383.022,467.51 383.022,531.861 384.229,532.532 429.057,540.833 " fill="#F57C00" fill-opacity="0.75" stroke="white" stroke-width="0.3"/>
<polygon points="378.576,549.983 370.194,536.014 321.361,508.884 321.361,549.983 " fill="#F57C00" fill-opacity="0.75" stroke="white" stroke-width="0.3"/>
<polygon points="383.022,423.61 383.022,346.907 378.384,339.176 321.361,339.176 321.361,407.361 334.404,414.607 " fill="#8E24AA" fill-opacity="0.75" stroke="white" stroke-width="0.3"/>
<polygon points="383.022,467.51 383.022,396.448 341.049,373.13 323.197,369.824 321.361,369.824 321.361,467.51 " fill="#8E24AA" fill-opacity="0.75" stroke="white" stroke-width="0.3"/>
<polygon points="383.022,540.833 383.022,480.764 379.497,474.889 339.651,467.51 321.361,467.51 321.361,531.208 321.581,531.574 338.248,540.833 " fill="#00ACC1" fill-opacity="0.75" stroke="white" stroke-width="0.3"/>
<polygon points="383.022,549.983 383.022,531.855 321.543,497.7 321.361,497.667 321.361,549.983 " fill="#00ACC1" fill-opacity="0.75" stroke="white" stroke-width="0.3"/>
<polygon points="318.68,540.833 318.68,527.003 301.889,499.018 288.505,491.582 223.329,479.513 223.329,540.833 " fill="#00ACC1" fill-opacity="0.75" stroke="white" stroke-width="0.3"/>
<polygon points="378.576,549.983 371.051,537.441 321.361,509.836 321.361,549.983 " fill="#E91E63" fill-opacity="0.75" stroke="white" stroke-width="0.3"/>
<polygon points="383.022,540.833 383.022,499.997 366.515,472.485 339.651,467.51 321.361,467.51 321.361,531.471 326.107,539.381 328.722,540.833 " fill="#E91E63" fill-opacity="0.75" stroke="white" stroke-width="0.3"/>
<polygon points="318.68,549.983 318.68,527.003 301.889,499.018 288.505,491.582 223.329,479.513 223.329,549.983 " fill="#E91E63" fill-opacity="0.75" stroke="white" stroke-width="0.3"/>
<polygon points="321.361,416.81 321.361,339.856 321.166,339.529 320.53,339.176 230.676,339.176 230.676,379.852 244.287,402.537 " fill="#00897B" fill-opacity="0.75" stroke="white" stroke-width="0.3"/>
<polygon points="321.361,425.465 321.361,416.333 275.068,339.176 230.676,339.176 230.676,418.193 235.039,425.465 " fill="#00897B" fill-opacity="0.75" stroke="white" stroke-width="0.3"/>
<polygon points="214.913,425.465 172,417.518 172,425.465 " fill="#00897B" fill-opacity="0.75" stroke="white" stroke-width="0.3"/>
<polygon points="321.361,517.404 321.361,435.498 316.309,427.077 313.407,425.465 230.676,425.465 230.676,456.492 252.58,492.999 288.179,512.777 313.165,517.404 " fill="#FDD835" fill-opacity="0.75" stroke="white" stroke-width="0.3"/>
<polygon points="321.361,522.511 321.361,490.344 307.569,467.358 291.94,458.675 230.676,447.329 230.676,513.937 231.555,515.402 244.351,522.511 " fill="#FDD835" fill-opacity="0.75" stroke="white" stroke-width="0.3"/>
<polygon points="281.984,517.404 281.984,490.375 172,470.007 172,517.404 " fill="#FDD835" fill-opacity="0.75" stroke="white" stroke-width="0.3"/>
<polygon points="321.361,549.983 321.361,530.995 302.319,499.256 288.505,491.582 230.676,480.873 230.676,549.983 " fill="#6D4C41" fill-opacity="0.75" stroke="white" stroke-width="0.3"/>
<polygon points="321.361,549.983 321.361,531.142 302.186,499.183 288.505,491.582 230.676,480.873 230.676,549.983 " fill="#6D4C41" fill-opacity="0.75" stroke="white" stroke-width="0.3"/>
<polygon points="281.984,549.983 281.984,490.375 207.933,476.662 172,476.662 172,549.965 172.011,549.983 " fill="#6D4C41" fill-opacity="0.75" stroke="white" stroke-width="0.3"/>
<polygon points="321.361,549.983 321.361,531.471 301.889,499.018 288.505,491.582 230.676,480.873 230.676,549.983 " fill="#1E88E5" fill-opacity="0.75" stroke="white" stroke-width="0.3"/>
<polygon points="321.361,549.983 321.361,531.142 302.186,499.183 288.505,491.582 230.676,480.873 230.676,549.983 " fill="#1E88E5" fill-opacity="0.75" stroke="white" stroke-width="0.3"/>
<polygon points="281.984,549.983 281.984,490.375 207.933,476.662 172,476.662 172,549.965 172.011,549.983 " fill="#1E88E5" fill-opacity="0.75" stroke="white" stroke-width="0.3"/>
<line x1="373.6" y1="550" x2="452.8" y2="330" stroke="black" stroke-width="1.2"/>
<line x1="287.2" y1="550" x2="366.4" y2="330" stroke="black" stroke-width="1.2"/>
</g>
<rect x="280" y="330" width="180" height="220" fill="none" stroke="#555" stroke-width="0.8"/>
<line x1="298" y1="550" x2="298" y2="554" stroke="#555" stroke-width="0.7"/>
<text x="298" y="564" text-anchor="middle" font-size="8" fill="black">-20</text>
<line x1="334" y1="550" x2="334" y2="554" stroke="#555" stroke-width="0.7"/>
<text x="334" y="564" text-anchor="middle" font-size="8" fill="black">-10</text>
<line x1="370" y1="550" x2="370" y2="554" stroke="#555" stroke-width="0.7"/>
<text x="370" y="564" text-anchor="middle" font-size="8" fill="black">0</text>
<line x1="406" y1="550" x2="406" y2="554" stroke="#555" stroke-width="0.7"/>
<text x="406" y="564" text-anchor="middle" font-size="8" fill="black">10</text>
<line x1="442" y1="550" x2="442" y2="554" stroke="#555" stroke-width="0.7"/>
<text x="442" y="564" text-anchor="middle" font-size="8" fill="black">20</text>
<text x="370" y="576" text-anchor="middle" font-size="9" fill="#333" font-style="italic">z1 (cm)</text>
<line x1="276" y1="520" x2="280" y2="520" stroke="#555" stroke-width="0.7"/>
<line x1="276" y1="480" x2="280" y2="480" stroke="#555" stroke-width="0.7"/>
<line x1="276" y1="440" x2="280" y2="440" stroke="#555" stroke-width="0.7"/>
<line x1="276" y1="400" x2="280" y2="400" stroke="#555" stroke-width="0.7"/>
<line x1="276" y1="360" x2="280" y2="360" stroke="#555" stroke-width="0.7"/>
<text x="458" y="342" text-anchor="end" font-size="7" fill="#333">SP=10 P=28</text>
<defs><clipPath id="cp5"><rect x="515" y="330" width="180" height="220"/></clipPath></defs>
<rect x="515" y="330" width="180" height="220" fill="#fafafa" stroke="#bbb" stroke-width="0.5"/>
<line x1="533" y1="330" x2="533" y2="550" stroke="#ddd" stroke-width="0.4"/>
<line x1="569" y1="330" x2="569" y2="550" stroke="#ddd" stroke-width="0.4"/>
<line x1="605" y1="330" x2="605" y2="550" stroke="#ddd" stroke-width="0.4"/>
<line x1="641" y1="330" x2="641" y2="550" stroke="#ddd" stroke-width="0.4"/>
<line x1="677" y1="330" x2="677" y2="550" stroke="#ddd" stroke-width="0.4"/>
<line x1="515" y1="520" x2="695" y2="520" stroke="#ddd" stroke-width="0.4"/>
<line x1="515" y1="480" x2="695" y2="480" stroke="#ddd" stroke-width="0.4"/>
<line x1="515" y1="440" x2="695" y2="440" stroke="#ddd" stroke-width="0.4"/>
<line x1="515" y1="400" x2="695" y2="400" stroke="#ddd" stroke-width="0.4"/>
<line x1="515" y1="360" x2="695" y2="360" stroke="#ddd" stroke-width="0.4"/>
<g clip-path="url(#cp5)">
<polygon points="685.671,403.344 685.671,336.668 649.713,330.009 619.613,330.009 619.613,394.7 620.253,395.766 632.347,402.485 636.984,403.344 " fill="#3949AB" fill-opacity="0.75" stroke="white" stroke-width="0.3"/>
<polygon points="685.671,439.996 685.671,402.303 663.521,365.385 637.3,350.818 619.613,350.818 619.613,436.976 620.287,438.1 630.528,439.996 " fill="#3949AB" fill-opacity="0.75" stroke="white" stroke-width="0.3"/>
<polygon points="685.671,513.33 685.671,445.325 676.079,439.996 619.613,439.996 619.613,474.898 636.139,502.442 649.18,509.687 668.854,513.33 " fill="#43A047" fill-opacity="0.75" stroke="white" stroke-width="0.3"/>
<polygon points="685.671,513.33 685.671,504.797 648.823,443.384 630.528,439.996 619.613,439.996 619.613,510.177 625.288,513.33 " fill="#43A047" fill-opacity="0.75" stroke="white" stroke-width="0.3"/>
<polygon points="615.87,513.33 600.983,488.518 576.858,475.115 575.682,474.898 575.682,513.33 " fill="#43A047" fill-opacity="0.75" stroke="white" stroke-width="0.3"/>
<polygon points="685.671,550.002 685.671,517.058 682.068,511.053 637.641,486.371 619.613,483.033 619.613,521.746 636.566,550.002 " fill="#F57C00" fill-opacity="0.75" stroke="white" stroke-width="0.3"/>
<polygon points="685.671,550.002 685.671,536.233 654.619,484.479 648.779,481.235 619.613,475.834 619.613,550.002 " fill="#F57C00" fill-opacity="0.75" stroke="white" stroke-width="0.3"/>
<polygon points="613.623,550.002 575.682,486.766 575.682,550.002 " fill="#F57C00" fill-opacity="0.75" stroke="white" stroke-width="0.3"/>
<polygon points="619.613,403.344 619.613,340.992 600.41,330.324 598.711,330.009 575.682,330.009 575.682,401.453 585.894,403.344 " fill="#8E24AA" fill-opacity="0.75" stroke="white" stroke-width="0.3"/>
<polygon points="619.613,445.374 619.613,394.7 597.723,358.218 576.589,354.304 575.682,354.304 575.682,440.625 584.23,445.374 " fill="#8E24AA" fill-opacity="0.75" stroke="white" stroke-width="0.3"/>
<polygon points="619.613,522.509 619.613,464.337 608.235,445.374 575.682,445.374 575.682,514.997 616.25,522.509 " fill="#00ACC1" fill-opacity="0.75" stroke="white" stroke-width="0.3"/>
<polygon points="619.613,550.002 619.613,483.908 597.812,471.796 575.682,467.698 575.682,550.002 " fill="#00ACC1" fill-opacity="0.75" stroke="white" stroke-width="0.3"/>
<polygon points="574.107,522.509 541.772,468.618 502.303,461.309 502.303,522.509 " fill="#00ACC1" fill-opacity="0.75" stroke="white" stroke-width="0.3"/>
<polygon points="575.682,403.344 575.682,333.742 575.572,333.559 556.403,330.009 504.57,330.009 548.571,403.344 " fill="#E91E63" fill-opacity="0.75" stroke="white" stroke-width="0.3"/>
<polygon points="575.682,481.414 575.682,410.274 575.055,409.23 543.273,403.344 465.693,403.344 465.693,435.932 533.499,473.602 " fill="#00897B" fill-opacity="0.75" stroke="white" stroke-width="0.3"/>
<polygon points="575.682,504.17 575.682,451.95 542.202,433.35 528.681,430.846 465.693,430.846 465.693,494.742 471.35,504.17 " fill="#00897B" fill-opacity="0.75" stroke="white" stroke-width="0.3"/>
<polygon points="516.998,485.837 516.998,464.03 407.026,443.665 407.026,485.837 " fill="#00897B" fill-opacity="0.75" stroke="white" stroke-width="0.3"/>
<polygon points="575.682,550.002 575.682,506.003 554.685,471.009 486.226,458.332 465.693,458.332 465.693,550.002 " fill="#FDD835" fill-opacity="0.75" stroke="white" stroke-width="0.3"/>
<polygon points="575.682,550.002 575.682,506.003 554.685,471.009 486.226,458.332 465.693,458.332 465.693,550.002 " fill="#FDD835" fill-opacity="0.75" stroke="white" stroke-width="0.3"/>
<polygon points="516.998,550.002 516.998,464.03 486.226,458.332 407.026,458.332 407.026,550.002 " fill="#FDD835" fill-opacity="0.75" stroke="white" stroke-width="0.3"/>
<line x1="608.6" y1="550" x2="687.8" y2="330" stroke="black" stroke-width="1.2"/>
<line x1="522.2" y1="550" x2="601.4" y2="330" stroke="black" stroke-width="1.2"/>
</g>
<rect x="515" y="330" width="180" height="220" fill="none" stroke="#555" stroke-width="0.8"/>
<line x1="533" y1="550" x2="533" y2="554" stroke="#555" stroke-width="0.7"/>
<text x="533" y="564" text-anchor="middle" font-size="8" fill="black">-20</text>
<line x1="569" y1="550" x2="569" y2="554" stroke="#555" stroke-width="0.7"/>
<text x="569" y="564" text-anchor="middle" font-size="8" fill="black">-10</text>
<line x1="605" y1="550" x2="605" y2="554" stroke="#555" stroke-width="0.7"/>
<text x="605" y="564" text-anchor="middle" font-size="8" fill="black">0</text>
<line x1="641" y1="550" x2="641" y2="554" stroke="#555" stroke-width="0.7"/>
<text x="641" y="564" text-anchor="middle" font-size="8" fill="black">10</text>
<line x1="677" y1="550" x2="677" y2="554" stroke="#555" stroke-width="0.7"/>
<text x="677" y="564" text-anchor="middle" font-size="8" fill="black">20</text>
<text x="605" y="576" text-anchor="middle" font-size="9" fill="#333" font-style="italic">z1 (cm)</text>
<line x1="511" y1="520" x2="515" y2="520" stroke="#555" stroke-width="0.7"/>
<line x1="511" y1="480" x2="515" y2="480" stroke="#555" stroke-width="0.7"/>
<line x1="511" y1="440" x2="515" y2="440" stroke="#555" stroke-width="0.7"/>
<line x1="511" y1="400" x2="515" y2="400" stroke="#555" stroke-width="0.7"/>
<line x1="511" y1="360" x2="515" y2="360" stroke="#555" stroke-width="0.7"/>
<text x="693" y="342" text-anchor="end" font-size="7" fill="#333">SP=8 P=20</text>
</svg>
