<svg viewBox="0 0 400 750" xmlns="http://www.w3.org/2000/svg">
<rect width="100%" height="100%" fill="white"/>
<g stroke="#ddd" stroke-width="0.5" stroke-dasharray="2 2">
<line x1="60" y1="624" x2="370" y2="624"/>
<line x1="60" y1="492" x2="370" y2="492"/>
<line x1="60" y1="360" x2="370" y2="360"/>
<line x1="60" y1="228" x2="370" y2="228"/>
<line x1="60" y1="96" x2="370" y2="96"/>
<line x1="74.0909" y1="30" x2="74.0909" y2="690"/>
<line x1="109.318" y1="30" x2="109.318" y2="690"/>
<line x1="144.545" y1="30" x2="144.545" y2="690"/>
<line x1="179.773" y1="30" x2="179.773" y2="690"/>
<line x1="215" y1="30" x2="215" y2="690"/>
<line x1="250.227" y1="30" x2="250.227" y2="690"/>
<line x1="285.455" y1="30" x2="285.455" y2="690"/>
<line x1="320.682" y1="30" x2="320.682" y2="690"/>
<line x1="355.909" y1="30" x2="355.909" y2="690"/>
</g>
<polygon points="372.938,390.23 372.938,27.3066 229.081,27.3066 229.081,347.582 230.889,349.276 362.046,390.23 " fill="#3B82F6" fill-opacity="0.85" stroke="none"/>
<polygon points="372.938,474.48 372.938,362.143 321.617,217.913 277.461,176.549 229.081,161.442 229.081,473.679 231.647,474.48 " fill="#F43F5E" fill-opacity="0.85" stroke="none"/>
<polygon points="372.938,659.204 372.938,456.062 355.879,450.735 229.081,450.735 229.081,553.388 342.04,659.204 " fill="#3B82F6" fill-opacity="0.85" stroke="none"/>
<polygon points="352.021,632.216 285.156,444.305 260.091,420.825 258.931,420.462 229.081,420.462 229.081,629.846 236.67,632.216 " fill="#F43F5E" fill-opacity="0.85" stroke="none"/>
<polygon points="298.95,659.204 277.405,598.656 200.724,526.823 200.724,659.204 " fill="#10B981" fill-opacity="0.85" stroke="none"/>
<polygon points="372.938,722.968 372.938,614.716 370.007,606.478 299.137,540.089 229.081,518.213 229.081,592.886 275.368,722.968 " fill="#3B82F6" fill-opacity="0.85" stroke="none"/>
<polygon points="345.333,692.719 274.744,494.344 264.487,484.735 252.475,480.984 229.081,480.984 229.081,690.785 235.275,692.719 " fill="#F43F5E" fill-opacity="0.85" stroke="none"/>
<polygon points="267.089,722.968 267.089,699.699 243.042,632.121 171.856,565.436 171.856,722.968 " fill="#10B981" fill-opacity="0.85" stroke="none"/>
<polygon points="372.938,722.968 372.938,691.001 371.416,686.723 229.081,553.388 229.081,652.475 254.165,722.968 " fill="#3B82F6" fill-opacity="0.85" stroke="none"/>
<polygon points="345.333,692.719 274.744,494.344 264.487,484.735 252.475,480.984 229.081,480.984 229.081,690.785 235.275,692.719 " fill="#F43F5E" fill-opacity="0.85" stroke="none"/>
<polygon points="238.553,722.968 238.553,679.094 211.237,602.326 160.357,554.663 160.357,722.968 " fill="#10B981" fill-opacity="0.85" stroke="none"/>
<polygon points="372.938,722.968 372.938,691.001 371.416,686.723 229.081,553.388 229.081,652.475 254.165,722.968 " fill="#3B82F6" fill-opacity="0.85" stroke="none"/>
<polygon points="345.333,692.719 274.744,494.344 264.487,484.735 252.475,480.984 229.081,480.984 229.081,690.785 235.275,692.719 " fill="#F43F5E" fill-opacity="0.85" stroke="none"/>
<polygon points="238.553,722.968 238.553,679.094 211.237,602.326 160.357,554.663 160.357,722.968 " fill="#10B981" fill-opacity="0.85" stroke="none"/>
<polygon points="372.938,722.968 372.938,691.001 371.416,686.723 229.081,553.388 229.081,652.475 254.165,722.968 " fill="#3B82F6" fill-opacity="0.85" stroke="none"/>
<polygon points="345.333,692.719 274.744,494.344 264.487,484.735 252.475,480.984 229.081,480.984 229.081,690.785 235.275,692.719 " fill="#F43F5E" fill-opacity="0.85" stroke="none"/>
<polygon points="238.553,722.968 238.553,679.094 211.237,602.326 160.357,554.663 160.357,722.968 " fill="#10B981" fill-opacity="0.85" stroke="none"/>
<polygon points="372.938,722.968 372.938,691.001 371.416,686.723 229.081,553.388 229.081,652.475 254.165,722.968 " fill="#3B82F6" fill-opacity="0.85" stroke="none"/>
<polygon points="345.333,692.719 274.744,494.344 264.487,484.735 252.475,480.984 229.081,480.984 229.081,690.785 235.275,692.719 " fill="#F43F5E" fill-opacity="0.85" stroke="none"/>
<polygon points="238.553,722.968 238.553,679.094 211.237,602.326 160.357,554.663 160.357,722.968 " fill="#10B981" fill-opacity="0.85" stroke="none"/>
<polygon points="372.938,722.968 372.938,691.001 371.416,686.723 229.081,553.388 229.081,652.475 254.165,722.968 " fill="#3B82F6" fill-opacity="0.85" stroke="none"/>
<polygon points="345.333,692.719 274.744,494.344 264.487,484.735 252.475,480.984 229.081,480.984 229.081,690.785 235.275,692.719 " fill="#F43F5E" fill-opacity="0.85" stroke="none"/>
<polygon points="238.553,722.968 238.553,679.094 211.237,602.326 160.357,554.663 160.357,722.968 " fill="#10B981" fill-opacity="0.85" stroke="none"/>
<polygon points="372.938,722.968 372.938,691.001 371.416,686.723 229.081,553.388 229.081,652.475 254.165,722.968 " fill="#3B82F6" fill-opacity="0.85" stroke="none"/>
<polygon points="345.333,692.719 274.744,494.344 264.487,484.735 252.475,480.984 229.081,480.984 229.081,690.785 235.275,692.719 " fill="#F43F5E" fill-opacity="0.85" stroke="none"/>
<polygon points="238.553,722.968 238.553,679.094 211.237,602.326 160.357,554.663 160.357,722.968 " fill="#10B981" fill-opacity="0.85" stroke="none"/>
<polygon points="372.938,722.968 372.938,691.001 371.416,686.723 229.081,553.388 229.081,652.475 254.165,722.968 " fill="#3B82F6" fill-opacity="0.85" stroke="none"/>
<polygon points="345.333,692.719 274.744,494.344 264.487,484.735 252.475,480.984 229.081,480.984 229.081,690.785 235.275,692.719 " fill="#F43F5E" fill-opacity="0.85" stroke="none"/>
<polygon points="238.553,722.968 238.553,679.094 211.237,602.326 160.357,554.663 160.357,722.968 " fill="#10B981" fill-opacity="0.85" stroke="none"/>
<polygon points="372.938,722.968 372.938,712.778 229.081,578.017 229.081,652.475 254.165,722.968 " fill="#3B82F6" fill-opacity="0.85" stroke="none"/>
<polygon points="345.333,692.719 274.744,494.344 264.487,484.735 252.475,480.984 229.081,480.984 229.081,690.785 235.275,692.719 " fill="#F43F5E" fill-opacity="0.85" stroke="none"/>
<polygon points="238.553,722.968 238.553,679.094 211.237,602.326 160.357,554.663 160.357,722.968 " fill="#10B981" fill-opacity="0.85" stroke="none"/>
<polygon points="372.938,722.968 372.938,712.778 229.081,578.017 229.081,652.475 254.165,722.968 " fill="#3B82F6" fill-opacity="0.85" stroke="none"/>
<polygon points="345.333,692.719 274.744,494.344 264.487,484.735 252.475,480.984 229.081,480.984 229.081,690.785 235.275,692.719 " fill="#F43F5E" fill-opacity="0.85" stroke="none"/>
<polygon points="238.553,722.968 238.553,679.094 211.237,602.326 160.357,554.663 160.357,722.968 " fill="#10B981" fill-opacity="0.85" stroke="none"/>
<polygon points="372.938,722.968 372.938,712.778 229.081,578.017 229.081,652.475 254.165,722.968 " fill="#3B82F6" fill-opacity="0.85" stroke="none"/>
<polygon points="345.333,692.719 274.744,494.344 264.487,484.735 252.475,480.984 229.081,480.984 229.081,690.785 235.275,692.719 " fill="#F43F5E" fill-opacity="0.85" stroke="none"/>
<polygon points="238.553,722.968 238.553,679.094 211.237,602.326 160.357,554.663 160.357,722.968 " fill="#10B981" fill-opacity="0.85" stroke="none"/>
<polygon points="372.938,722.968 372.938,712.778 229.081,578.017 229.081,652.475 254.165,722.968 " fill="#3B82F6" fill-opacity="0.85" stroke="none"/>
<polygon points="345.333,692.719 274.744,494.344 264.487,484.735 252.475,480.984 229.081,480.984 229.081,690.785 235.275,692.719 " fill="#F43F5E" fill-opacity="0.85" stroke="none"/>
<polygon points="238.553,722.968 238.553,679.094 211.237,602.326 160.357,554.663 160.357,722.968 " fill="#10B981" fill-opacity="0.85" stroke="none"/>
<polygon points="229.081,380.03 229.081,27.3066 143.291,27.3066 143.291,311.41 210.274,374.158 " fill="#3B82F6" fill-opacity="0.85" stroke="none"/>
<polygon points="229.081,450.735 229.081,366.016 163.353,181.298 143.291,162.504 143.291,446.891 155.604,450.735 " fill="#F43F5E" fill-opacity="0.85" stroke="none"/>
<polygon points="229.081,632.216 229.081,442.452 158.662,420.462 143.291,420.462 143.291,600.533 147.915,613.526 167.866,632.216 " fill="#3B82F6" fill-opacity="0.85" stroke="none"/>
<polygon points="229.081,722.968 229.081,589.015 210.065,535.574 172.759,500.626 154.406,494.895 143.291,494.895 143.291,722.968 " fill="#F43F5E" fill-opacity="0.85" stroke="none"/>
<polygon points="154.565,632.216 110.276,507.748 67.6299,467.799 57.1029,464.512 57.1029,632.216 " fill="#10B981" fill-opacity="0.85" stroke="none"/>
<polygon points="229.081,722.968 229.081,715.331 177.688,570.898 143.291,538.677 143.291,722.968 " fill="#3B82F6" fill-opacity="0.85" stroke="none"/>
<polygon points="229.081,722.968 229.081,615.259 143.291,534.893 143.291,722.968 " fill="#F43F5E" fill-opacity="0.85" stroke="none"/>
<polygon points="143.291,722.968 143.291,684.753 75.734,494.895 -57.7022,494.895 -57.7022,722.968 " fill="#10B981" fill-opacity="0.85" stroke="none"/>
<polygon points="143.291,509.418 143.291,299.529 -8.63643,299.529 41.0243,439.092 102.501,496.681 " fill="#3B82F6" fill-opacity="0.85" stroke="none"/>
<polygon points="143.291,480.984 143.291,394.097 27.7235,285.836 -57.7022,259.161 -57.7022,477.431 -57.5426,477.879 -47.5992,480.984 " fill="#F43F5E" fill-opacity="0.85" stroke="none"/>
<polygon points="85.8311,511.235 85.8311,481.066 73.6884,469.691 -129.45,406.259 -129.45,511.235 " fill="#10B981" fill-opacity="0.85" stroke="none"/>
<polygon points="143.291,662.489 143.291,474.48 -57.7022,474.48 -57.7022,602.681 133.832,662.489 " fill="#3B82F6" fill-opacity="0.85" stroke="none"/>
<polygon points="143.291,722.968 143.291,621.079 99.3094,497.475 96.5553,494.895 -57.7022,494.895 -57.7022,722.968 " fill="#F43F5E" fill-opacity="0.85" stroke="none"/>
<polygon points="42.7939,662.489 42.7939,474.48 -172.548,474.48 -172.548,662.489 " fill="#10B981" fill-opacity="0.85" stroke="none"/>
<polygon points="143.291,722.968 143.291,684.753 75.734,494.895 -57.7022,494.895 -57.7022,722.968 " fill="#3B82F6" fill-opacity="0.85" stroke="none"/>
<polygon points="143.291,722.968 143.291,663.763 83.203,494.895 -57.7022,494.895 -57.7022,722.968 " fill="#F43F5E" fill-opacity="0.85" stroke="none"/>
<polygon points="42.7939,722.968 42.7939,494.895 -172.548,494.895 -172.548,722.817 -172.494,722.968 " fill="#10B981" fill-opacity="0.85" stroke="none"/>
<g stroke="black" stroke-width="1.5">
<line x1="60" y1="690" x2="200.909" y2="30"/>
<line x1="229.091" y1="690" x2="370" y2="30"/>
</g>
<g stroke="black" stroke-width="1">
<line x1="60" y1="690" x2="370" y2="690"/>
<line x1="60" y1="30" x2="60" y2="690"/>
</g>
<g font-family="sans-serif" font-size="10" text-anchor="middle">
<text x="74.0909" y="705">-20</text>
<line x1="74.0909" y1="690" x2="74.0909" y2="694" stroke="black"/>
<text x="144.545" y="705">-10</text>
<line x1="144.545" y1="690" x2="144.545" y2="694" stroke="black"/>
<text x="215" y="705">0</text>
<line x1="215" y1="690" x2="215" y2="694" stroke="black"/>
<text x="285.455" y="705">10</text>
<line x1="285.455" y1="690" x2="285.455" y2="694" stroke="black"/>
<text x="355.909" y="705">20</text>
<line x1="355.909" y1="690" x2="355.909" y2="694" stroke="black"/>
<text x="215" y="725" font-weight="bold">z1 (cm)</text>
</g>
<g font-family="sans-serif" font-size="10" text-anchor="end">
<text x="52" y="628">-40</text>
<line x1="56" y1="624" x2="60" y2="624" stroke="black"/>
<text x="52" y="496">-20</text>
<line x1="56" y1="492" x2="60" y2="492" stroke="black"/>
<text x="52" y="364">0</text>
<line x1="56" y1="360" x2="60" y2="360" stroke="black"/>
<text x="52" y="232">20</text>
<line x1="56" y1="228" x2="60" y2="228" stroke="black"/>
<text x="52" y="100">40</text>
<line x1="56" y1="96" x2="60" y2="96" stroke="black"/>
<text x="35" y="360" transform="rotate(-90,35,360)" font-weight="bold" text-anchor="middle">z_L (cm)</text>
</g>
</svg>
