<?xml version="1.0" encoding="UTF-8"?>
<svg xmlns="http://www.w3.org/2000/svg" width="400" height="750" viewBox="0 0 400 750">
<rect width="100%" height="100%" fill="white"/>
<defs>
  <clipPath id="plot_clip"><rect x="60" y="30" width="310" height="660"/></clipPath>
  <clipPath id="luminous_clip">
    <polygon points="60,690 229.091,690 370,30 200.909,30"/>
  </clipPath>
</defs>
<line x1="74.0909" y1="30" x2="74.0909" y2="690" stroke="#e0e0e0" stroke-width="0.6"/>
<line x1="144.545" y1="30" x2="144.545" y2="690" stroke="#e0e0e0" stroke-width="0.6"/>
<line x1="215" y1="30" x2="215" y2="690" stroke="#e0e0e0" stroke-width="0.6"/>
<line x1="285.455" y1="30" x2="285.455" y2="690" stroke="#e0e0e0" stroke-width="0.6"/>
<line x1="355.909" y1="30" x2="355.909" y2="690" stroke="#e0e0e0" stroke-width="0.6"/>
<line x1="60" y1="624" x2="370" y2="624" stroke="#e0e0e0" stroke-width="0.6"/>
<line x1="60" y1="492" x2="370" y2="492" stroke="#e0e0e0" stroke-width="0.6"/>
<line x1="60" y1="360" x2="370" y2="360" stroke="#e0e0e0" stroke-width="0.6"/>
<line x1="60" y1="228" x2="370" y2="228" stroke="#e0e0e0" stroke-width="0.6"/>
<line x1="60" y1="96" x2="370" y2="96" stroke="#e0e0e0" stroke-width="0.6"/>
<g clip-path="url(#plot_clip)">
<polygon points="372.938,390.23 372.938,27.3066 229.081,27.3066 229.081,347.582 230.889,349.276 362.046,390.23 " fill="#0D47A1" fill-opacity="0.85" stroke="none"/>
<polygon points="372.938,474.48 372.938,362.143 301.655,161.813 287.25,148.319 286.864,148.198 229.081,148.198 229.081,466.316 231.509,468.59 250.371,474.48 " fill="#C62828" fill-opacity="0.85" stroke="none"/>
<polygon points="372.938,659.204 372.938,456.062 355.879,450.735 229.081,450.735 229.081,553.388 342.04,659.204 " fill="#2E7D32" fill-opacity="0.85" stroke="none"/>
<polygon points="368.407,601.98 307.737,431.479 280.285,405.763 240.446,393.323 229.081,393.323 229.081,592.886 231.333,599.215 240.187,601.98 " fill="#2E7D32" fill-opacity="0.85" stroke="none"/>
<polygon points="258.081,659.204 258.081,607.334 243.788,567.164 172.759,500.626 168.734,499.37 168.734,659.204 " fill="#2E7D32" fill-opacity="0.85" stroke="none"/>
<polygon points="372.938,722.968 372.938,586.329 335.797,551.536 229.081,518.213 229.081,589.015 276.746,722.968 " fill="#2E7D32" fill-opacity="0.85" stroke="none"/>
<polygon points="352.021,632.216 285.156,444.305 260.091,420.825 258.931,420.462 229.081,420.462 229.081,629.846 236.67,632.216 " fill="#2E7D32" fill-opacity="0.85" stroke="none"/>
<polygon points="243.682,722.968 243.682,632.72 162.69,556.849 162.69,722.968 " fill="#2E7D32" fill-opacity="0.85" stroke="none"/>
<polygon points="372.938,722.968 372.938,614.716 370.007,606.478 299.137,540.089 229.081,518.213 229.081,592.886 275.368,722.968 " fill="#2E7D32" fill-opacity="0.85" stroke="none"/>
<polygon points="352.021,632.216 285.156,444.305 260.091,420.825 258.931,420.462 229.081,420.462 229.081,629.846 236.67,632.216 " fill="#2E7D32" fill-opacity="0.85" stroke="none"/>
<polygon points="243.682,722.968 243.682,633.918 243.042,632.121 162.69,556.849 162.69,722.968 " fill="#2E7D32" fill-opacity="0.85" stroke="none"/>
<polygon points="372.938,722.968 372.938,614.716 370.007,606.478 299.137,540.089 229.081,518.213 229.081,592.886 275.368,722.968 " fill="#2E7D32" fill-opacity="0.85" stroke="none"/>
<polygon points="352.021,632.216 285.156,444.305 260.091,420.825 258.931,420.462 229.081,420.462 229.081,629.846 236.67,632.216 " fill="#2E7D32" fill-opacity="0.85" stroke="none"/>
<polygon points="243.682,722.968 243.682,633.918 243.042,632.121 162.69,556.849 162.69,722.968 " fill="#2E7D32" fill-opacity="0.85" stroke="none"/>
<polygon points="372.938,722.968 372.938,614.716 370.007,606.478 299.137,540.089 229.081,518.213 229.081,592.886 275.368,722.968 " fill="#2E7D32" fill-opacity="0.85" stroke="none"/>
<polygon points="352.021,632.216 285.156,444.305 260.091,420.825 258.931,420.462 229.081,420.462 229.081,629.846 236.67,632.216 " fill="#2E7D32" fill-opacity="0.85" stroke="none"/>
<polygon points="243.682,722.968 243.682,633.918 243.042,632.121 162.69,556.849 162.69,722.968 " fill="#2E7D32" fill-opacity="0.85" stroke="none"/>
<polygon points="372.938,722.968 372.938,638.202 252.736,525.6 229.081,518.213 229.081,592.886 275.368,722.968 " fill="#2E7D32" fill-opacity="0.85" stroke="none"/>
<polygon points="352.021,632.216 285.156,444.305 260.091,420.825 258.931,420.462 229.081,420.462 229.081,629.846 236.67,632.216 " fill="#2E7D32" fill-opacity="0.85" stroke="none"/>
<polygon points="243.682,722.968 243.682,633.918 243.042,632.121 162.69,556.849 162.69,722.968 " fill="#2E7D32" fill-opacity="0.85" stroke="none"/>
<polygon points="372.938,722.968 372.938,638.202 252.736,525.6 229.081,518.213 229.081,592.886 275.368,722.968 " fill="#2E7D32" fill-opacity="0.85" stroke="none"/>
<polygon points="352.021,632.216 285.156,444.305 260.091,420.825 258.931,420.462 229.081,420.462 229.081,629.846 236.67,632.216 " fill="#2E7D32" fill-opacity="0.85" stroke="none"/>
<polygon points="243.682,722.968 243.682,633.918 243.042,632.121 162.69,556.849 162.69,722.968 " fill="#2E7D32" fill-opacity="0.85" stroke="none"/>
<polygon points="372.938,722.968 372.938,638.202 252.736,525.6 229.081,518.213 229.081,592.886 275.368,722.968 " fill="#2E7D32" fill-opacity="0.85" stroke="none"/>
<polygon points="352.021,632.216 285.156,444.305 260.091,420.825 258.931,420.462 229.081,420.462 229.081,629.846 236.67,632.216 " fill="#2E7D32" fill-opacity="0.85" stroke="none"/>
<polygon points="243.682,722.968 243.682,633.918 243.042,632.121 162.69,556.849 162.69,722.968 " fill="#2E7D32" fill-opacity="0.85" stroke="none"/>
<polygon points="372.938,722.968 372.938,638.202 252.736,525.6 229.081,518.213 229.081,592.886 275.368,722.968 " fill="#2E7D32" fill-opacity="0.85" stroke="none"/>
<polygon points="352.021,632.216 285.156,444.305 260.091,420.825 258.931,420.462 229.081,420.462 229.081,629.846 236.67,632.216 " fill="#2E7D32" fill-opacity="0.85" stroke="none"/>
<polygon points="243.682,722.968 243.682,633.918 243.042,632.121 162.69,556.849 162.69,722.968 " fill="#2E7D32" fill-opacity="0.85" stroke="none"/>
<polygon points="372.938,722.968 372.938,650.12 233.653,519.641 229.081,518.213 229.081,592.886 275.368,722.968 " fill="#2E7D32" fill-opacity="0.85" stroke="none"/>
<polygon points="352.021,632.216 285.156,444.305 260.091,420.825 258.931,420.462 229.081,420.462 229.081,629.846 236.67,632.216 " fill="#2E7D32" fill-opacity="0.85" stroke="none"/>
<polygon points="243.682,722.968 243.682,633.918 243.042,632.121 162.69,556.849 162.69,722.968 " fill="#2E7D32" fill-opacity="0.85" stroke="none"/>
<polygon points="372.938,722.968 372.938,650.12 233.653,519.641 229.081,518.213 229.081,592.886 275.368,722.968 " fill="#2E7D32" fill-opacity="0.85" stroke="none"/>
<polygon points="352.021,632.216 285.156,444.305 260.091,420.825 258.931,420.462 229.081,420.462 229.081,629.846 236.67,632.216 " fill="#2E7D32" fill-opacity="0.85" stroke="none"/>
<polygon points="243.682,722.968 243.682,633.918 243.042,632.121 162.69,556.849 162.69,722.968 " fill="#2E7D32" fill-opacity="0.85" stroke="none"/>
<polygon points="372.938,722.968 372.938,650.12 233.653,519.641 229.081,518.213 229.081,592.886 275.368,722.968 " fill="#2E7D32" fill-opacity="0.85" stroke="none"/>
<polygon points="352.021,632.216 285.156,444.305 260.091,420.825 258.931,420.462 229.081,420.462 229.081,629.846 236.67,632.216 " fill="#2E7D32" fill-opacity="0.85" stroke="none"/>
<polygon points="243.682,722.968 243.682,633.918 243.042,632.121 162.69,556.849 162.69,722.968 " fill="#2E7D32" fill-opacity="0.85" stroke="none"/>
<polygon points="372.938,722.968 372.938,650.12 233.653,519.641 229.081,518.213 229.081,592.886 275.368,722.968 " fill="#2E7D32" fill-opacity="0.85" stroke="none"/>
<polygon points="352.021,632.216 285.156,444.305 260.091,420.825 258.931,420.462 229.081,420.462 229.081,629.846 236.67,632.216 " fill="#2E7D32" fill-opacity="0.85" stroke="none"/>
<polygon points="243.682,722.968 243.682,633.918 243.042,632.121 162.69,556.849 162.69,722.968 " fill="#2E7D32" fill-opacity="0.85" stroke="none"/>
<polygon points="372.938,722.968 372.938,650.12 233.653,519.641 229.081,518.213 229.081,592.886 275.368,722.968 " fill="#2E7D32" fill-opacity="0.85" stroke="none"/>
<polygon points="352.021,632.216 285.156,444.305 260.091,420.825 258.931,420.462 229.081,420.462 229.081,629.846 236.67,632.216 " fill="#2E7D32" fill-opacity="0.85" stroke="none"/>
<polygon points="243.682,722.968 243.682,633.918 243.042,632.121 162.69,556.849 162.69,722.968 " fill="#2E7D32" fill-opacity="0.85" stroke="none"/>
<polygon points="372.938,722.968 372.938,668.463 229.081,533.701 229.081,592.886 275.368,722.968 " fill="#2E7D32" fill-opacity="0.85" stroke="none"/>
<polygon points="352.021,632.216 285.156,444.305 260.091,420.825 258.931,420.462 229.081,420.462 229.081,629.846 236.67,632.216 " fill="#2E7D32" fill-opacity="0.85" stroke="none"/>
<polygon points="243.682,722.968 243.682,633.918 243.042,632.121 162.69,556.849 162.69,722.968 " fill="#2E7D32" fill-opacity="0.85" stroke="none"/>
<polygon points="372.938,722.968 372.938,677.483 369.937,669.048 229.081,537.098 229.081,594.352 274.847,722.968 " fill="#2E7D32" fill-opacity="0.85" stroke="none"/>
<polygon points="352.021,632.216 285.156,444.305 260.091,420.825 258.931,420.462 229.081,420.462 229.081,629.846 236.67,632.216 " fill="#2E7D32" fill-opacity="0.85" stroke="none"/>
<polygon points="229.081,722.968 229.081,619.042 143.291,538.677 143.291,722.968 " fill="#2E7D32" fill-opacity="0.85" stroke="none"/>
<polygon points="372.938,722.968 372.938,677.483 371.891,674.54 229.081,540.759 229.081,594.352 274.847,722.968 " fill="#2E7D32" fill-opacity="0.85" stroke="none"/>
<polygon points="352.021,632.216 285.156,444.305 260.091,420.825 258.931,420.462 229.081,420.462 229.081,629.846 236.67,632.216 " fill="#2E7D32" fill-opacity="0.85" stroke="none"/>
<polygon points="229.081,722.968 229.081,619.042 143.291,538.677 143.291,722.968 " fill="#2E7D32" fill-opacity="0.85" stroke="none"/>
<polygon points="372.938,722.968 372.938,677.483 371.891,674.54 229.081,540.759 229.081,594.352 274.847,722.968 " fill="#2E7D32" fill-opacity="0.85" stroke="none"/>
<polygon points="352.021,632.216 285.156,444.305 260.091,420.825 258.931,420.462 229.081,420.462 229.081,629.846 236.67,632.216 " fill="#2E7D32" fill-opacity="0.85" stroke="none"/>
<polygon points="229.081,722.968 229.081,619.042 143.291,538.677 143.291,722.968 " fill="#2E7D32" fill-opacity="0.85" stroke="none"/>
<polygon points="372.938,722.968 372.938,677.483 371.891,674.54 229.081,540.759 229.081,594.352 274.847,722.968 " fill="#2E7D32" fill-opacity="0.85" stroke="none"/>
<polygon points="352.021,632.216 285.156,444.305 260.091,420.825 258.931,420.462 229.081,420.462 229.081,629.846 236.67,632.216 " fill="#2E7D32" fill-opacity="0.85" stroke="none"/>
<polygon points="229.081,722.968 229.081,619.042 143.291,538.677 143.291,722.968 " fill="#2E7D32" fill-opacity="0.85" stroke="none"/>
<polygon points="372.938,722.968 372.938,691.001 364.676,667.78 229.081,540.759 229.081,652.475 254.165,722.968 " fill="#2E7D32" fill-opacity="0.85" stroke="none"/>
<polygon points="361.624,659.204 291.424,461.918 255.61,450.735 229.081,450.735 229.081,652.475 229.093,652.509 236.241,659.204 " fill="#2E7D32" fill-opacity="0.85" stroke="none"/>
<polygon points="229.081,722.968 229.081,652.475 211.237,602.326 143.291,538.677 143.291,722.968 " fill="#2E7D32" fill-opacity="0.85" stroke="none"/>
<polygon points="372.938,722.968 372.938,691.001 371.416,686.723 229.081,553.388 229.081,652.475 254.165,722.968 " fill="#2E7D32" fill-opacity="0.85" stroke="none"/>
<polygon points="361.624,659.204 291.424,461.918 255.61,450.735 229.081,450.735 229.081,652.475 229.093,652.509 236.241,659.204 " fill="#2E7D32" fill-opacity="0.85" stroke="none"/>
<polygon points="229.081,722.968 229.081,652.475 211.237,602.326 143.291,538.677 143.291,722.968 " fill="#2E7D32" fill-opacity="0.85" stroke="none"/>
<polygon points="372.938,722.968 372.938,691.001 371.416,686.723 229.081,553.388 229.081,652.475 254.165,722.968 " fill="#2E7D32" fill-opacity="0.85" stroke="none"/>
<polygon points="361.624,659.204 291.424,461.918 255.61,450.735 229.081,450.735 229.081,652.475 229.093,652.509 236.241,659.204 " fill="#2E7D32" fill-opacity="0.85" stroke="none"/>
<polygon points="229.081,722.968 229.081,652.475 211.237,602.326 143.291,538.677 143.291,722.968 " fill="#2E7D32" fill-opacity="0.85" stroke="none"/>
<polygon points="372.938,722.968 372.938,691.001 371.416,686.723 229.081,553.388 229.081,652.475 254.165,722.968 " fill="#2E7D32" fill-opacity="0.85" stroke="none"/>
<polygon points="361.624,659.204 291.424,461.918 255.61,450.735 229.081,450.735 229.081,652.475 229.093,652.509 236.241,659.204 " fill="#2E7D32" fill-opacity="0.85" stroke="none"/>
<polygon points="229.081,722.968 229.081,652.475 211.237,602.326 143.291,538.677 143.291,722.968 " fill="#2E7D32" fill-opacity="0.85" stroke="none"/>
<polygon points="372.938,722.968 372.938,691.001 371.416,686.723 229.081,553.388 229.081,652.475 254.165,722.968 " fill="#2E7D32" fill-opacity="0.85" stroke="none"/>
<polygon points="361.624,659.204 291.424,461.918 255.61,450.735 229.081,450.735 229.081,652.475 229.093,652.509 236.241,659.204 " fill="#2E7D32" fill-opacity="0.85" stroke="none"/>
<polygon points="229.081,722.968 229.081,652.475 211.237,602.326 143.291,538.677 143.291,722.968 " fill="#2E7D32" fill-opacity="0.85" stroke="none"/>
<polygon points="372.938,722.968 372.938,691.001 371.416,686.723 229.081,553.388 229.081,652.475 254.165,722.968 " fill="#2E7D32" fill-opacity="0.85" stroke="none"/>
<polygon points="361.624,659.204 291.424,461.918 255.61,450.735 229.081,450.735 229.081,652.475 229.093,652.509 236.241,659.204 " fill="#2E7D32" fill-opacity="0.85" stroke="none"/>
<polygon points="229.081,722.968 229.081,652.475 211.237,602.326 143.291,538.677 143.291,722.968 " fill="#2E7D32" fill-opacity="0.85" stroke="none"/>
<polygon points="372.938,722.968 372.938,691.001 371.416,686.723 229.081,553.388 229.081,652.475 254.165,722.968 " fill="#2E7D32" fill-opacity="0.85" stroke="none"/>
<polygon points="361.624,659.204 291.424,461.918 255.61,450.735 229.081,450.735 229.081,652.475 229.093,652.509 236.241,659.204 " fill="#2E7D32" fill-opacity="0.85" stroke="none"/>
<polygon points="229.081,722.968 229.081,652.475 211.237,602.326 143.291,538.677 143.291,722.968 " fill="#2E7D32" fill-opacity="0.85" stroke="none"/>
<polygon points="372.938,722.968 372.938,691.001 371.416,686.723 229.081,553.388 229.081,652.475 254.165,722.968 " fill="#2E7D32" fill-opacity="0.85" stroke="none"/>
<polygon points="361.624,659.204 291.424,461.918 255.61,450.735 229.081,450.735 229.081,652.475 229.093,652.509 236.241,659.204 " fill="#2E7D32" fill-opacity="0.85" stroke="none"/>
<polygon points="229.081,722.968 229.081,652.475 211.237,602.326 143.291,538.677 143.291,722.968 " fill="#2E7D32" fill-opacity="0.85" stroke="none"/>
<polygon points="372.938,722.968 372.938,711.708 229.081,576.946 229.081,652.475 254.165,722.968 " fill="#2E7D32" fill-opacity="0.85" stroke="none"/>
<polygon points="361.624,659.204 291.424,461.918 255.61,450.735 229.081,450.735 229.081,652.475 229.093,652.509 236.241,659.204 " fill="#2E7D32" fill-opacity="0.85" stroke="none"/>
<polygon points="229.081,722.968 229.081,652.475 211.237,602.326 143.291,538.677 143.291,722.968 " fill="#2E7D32" fill-opacity="0.85" stroke="none"/>
<polygon points="372.938,722.968 372.938,712.778 229.081,578.017 229.081,652.475 254.165,722.968 " fill="#2E7D32" fill-opacity="0.85" stroke="none"/>
<polygon points="361.624,659.204 291.424,461.918 255.61,450.735 229.081,450.735 229.081,652.475 229.093,652.509 236.241,659.204 " fill="#2E7D32" fill-opacity="0.85" stroke="none"/>
<polygon points="229.081,722.968 229.081,652.475 211.237,602.326 143.291,538.677 143.291,722.968 " fill="#2E7D32" fill-opacity="0.85" stroke="none"/>
<polygon points="372.938,722.968 372.938,712.778 229.081,578.017 229.081,652.475 254.165,722.968 " fill="#2E7D32" fill-opacity="0.85" stroke="none"/>
<polygon points="361.624,659.204 291.424,461.918 255.61,450.735 229.081,450.735 229.081,652.475 229.093,652.509 236.241,659.204 " fill="#2E7D32" fill-opacity="0.85" stroke="none"/>
<polygon points="229.081,722.968 229.081,652.475 211.237,602.326 143.291,538.677 143.291,722.968 " fill="#2E7D32" fill-opacity="0.85" stroke="none"/>
<polygon points="372.938,722.968 372.938,712.778 229.081,578.017 229.081,652.475 254.165,722.968 " fill="#2E7D32" fill-opacity="0.85" stroke="none"/>
<polygon points="361.624,659.204 291.424,461.918 255.61,450.735 229.081,450.735 229.081,652.475 229.093,652.509 236.241,659.204 " fill="#2E7D32" fill-opacity="0.85" stroke="none"/>
<polygon points="229.081,722.968 229.081,652.475 211.237,602.326 143.291,538.677 143.291,722.968 " fill="#2E7D32" fill-opacity="0.85" stroke="none"/>
<polygon points="372.938,722.968 372.938,712.778 229.081,578.017 229.081,652.475 254.165,722.968 " fill="#2E7D32" fill-opacity="0.85" stroke="none"/>
<polygon points="361.624,659.204 291.424,461.918 255.61,450.735 229.081,450.735 229.081,652.475 229.093,652.509 236.241,659.204 " fill="#2E7D32" fill-opacity="0.85" stroke="none"/>
<polygon points="229.081,722.968 229.081,652.475 211.237,602.326 143.291,538.677 143.291,722.968 " fill="#2E7D32" fill-opacity="0.85" stroke="none"/>
<polygon points="229.081,380.03 229.081,27.3066 143.291,27.3066 143.291,311.41 210.274,374.158 " fill="#0097A7" fill-opacity="0.85" stroke="none"/>
<polygon points="229.081,450.735 229.081,366.016 163.353,181.298 143.291,162.504 143.291,446.891 155.604,450.735 " fill="#0097A7" fill-opacity="0.85" stroke="none"/>
<polygon points="229.081,632.216 229.081,442.452 158.662,420.462 143.291,420.462 143.291,600.533 147.915,613.526 167.866,632.216 " fill="#C2185B" fill-opacity="0.85" stroke="none"/>
<polygon points="229.081,722.968 229.081,585.323 205.296,518.477 192.98,506.941 154.406,494.895 143.291,494.895 143.291,722.968 " fill="#C2185B" fill-opacity="0.85" stroke="none"/>
<polygon points="154.565,632.216 110.276,507.748 67.6299,467.799 57.1029,464.512 57.1029,632.216 " fill="#C2185B" fill-opacity="0.85" stroke="none"/>
<polygon points="143.291,509.418 143.291,299.529 -8.63643,299.529 41.0243,439.092 102.501,496.681 " fill="#000000" fill-opacity="0.85" stroke="none"/>
<polygon points="143.291,390.23 143.291,351.788 141.613,347.071 -57.7022,160.358 -57.7022,384.95 -40.7925,390.23 " fill="#000000" fill-opacity="0.85" stroke="none"/>
<polygon points="42.7939,511.235 42.7939,440.75 -47.6245,356.048 -172.548,317.04 -172.548,511.235 " fill="#000000" fill-opacity="0.85" stroke="none"/>
<polygon points="143.291,556.806 143.291,371.202 131.374,360.038 -57.7022,360.038 -57.7022,458.32 23.3866,534.282 95.5185,556.806 " fill="#D84315" fill-opacity="0.85" stroke="none"/>
<polygon points="143.291,659.204 143.291,478.099 55.6592,450.735 -57.7022,450.735 -57.7022,659.204 " fill="#D84315" fill-opacity="0.85" stroke="none"/>
<polygon points="42.7939,556.806 42.7939,460.044 -172.548,392.802 -172.548,556.806 " fill="#D84315" fill-opacity="0.85" stroke="none"/>
<polygon points="143.291,722.968 143.291,621.079 99.3094,497.475 96.5553,494.895 -57.7022,494.895 -57.7022,722.968 " fill="#4A148C" fill-opacity="0.85" stroke="none"/>
<polygon points="143.291,722.968 143.291,663.763 83.203,494.895 -57.7022,494.895 -57.7022,722.968 " fill="#4A148C" fill-opacity="0.85" stroke="none"/>
<polygon points="42.7939,722.968 42.7939,494.895 -172.548,494.895 -172.548,722.817 -172.494,722.968 " fill="#4A148C" fill-opacity="0.85" stroke="none"/>
<line x1="60" y1="690" x2="200.909" y2="30" stroke="black" stroke-width="1.2"/>
<line x1="229.091" y1="690" x2="370" y2="30" stroke="black" stroke-width="1.2"/>
</g>
<rect x="60" y="30" width="310" height="660" fill="none" stroke="#333333" stroke-width="1.0"/>
<g font-family="sans-serif" font-size="10" fill="#333333">
<line x1="74.0909" y1="690" x2="74.0909" y2="694" stroke="#333333" stroke-width="0.8"/>
<text x="74.0909" y="706" text-anchor="middle">-20</text>
<line x1="144.545" y1="690" x2="144.545" y2="694" stroke="#333333" stroke-width="0.8"/>
<text x="144.545" y="706" text-anchor="middle">-10</text>
<line x1="215" y1="690" x2="215" y2="694" stroke="#333333" stroke-width="0.8"/>
<text x="215" y="706" text-anchor="middle">0</text>
<line x1="285.455" y1="690" x2="285.455" y2="694" stroke="#333333" stroke-width="0.8"/>
<text x="285.455" y="706" text-anchor="middle">10</text>
<line x1="355.909" y1="690" x2="355.909" y2="694" stroke="#333333" stroke-width="0.8"/>
<text x="355.909" y="706" text-anchor="middle">20</text>
<line x1="56" y1="624" x2="60" y2="624" stroke="#333333" stroke-width="0.8"/>
<text x="54" y="627" text-anchor="end">-40</text>
<line x1="56" y1="492" x2="60" y2="492" stroke="#333333" stroke-width="0.8"/>
<text x="54" y="495" text-anchor="end">-20</text>
<line x1="56" y1="360" x2="60" y2="360" stroke="#333333" stroke-width="0.8"/>
<text x="54" y="363" text-anchor="end">0</text>
<line x1="56" y1="228" x2="60" y2="228" stroke="#333333" stroke-width="0.8"/>
<text x="54" y="231" text-anchor="end">20</text>
<line x1="56" y1="96" x2="60" y2="96" stroke="#333333" stroke-width="0.8"/>
<text x="54" y="99" text-anchor="end">40</text>
<text x="215" y="735" text-anchor="middle" font-size="14" font-style="italic">z1 (cm)</text>
<text transform="rotate(-90,18,360)" x="18" y="364" text-anchor="middle" font-size="14" font-style="italic">z_L (cm)</text>
</g>
</svg>
